<?xml version="1.0" encoding="UTF-8" standalone="no"?>
<svg width="41px" height="78px" viewBox="0 0 41 78" version="1.1" xmlns="http://www.w3.org/2000/svg" xmlns:xlink="http://www.w3.org/1999/xlink" xmlns:sketch="http://www.bohemiancoding.com/sketch/ns">
    <!-- Generator: Sketch 3.5.2 (25235) - http://www.bohemiancoding.com/sketch -->
    <title>Untitled 2</title>
    <desc>Created with Sketch.</desc>
    <defs></defs>
    <g id="Page-1" stroke="none" stroke-width="1" fill="none" fill-rule="evenodd" sketch:type="MSPage">
        <path d="M40.0001049,16.7499443 C40.0001049,7.76843923 31.0648963,0.499901652 20.0000525,0.499901652 C8.93520862,0.499901652 0,7.76843923 0,16.7499443 C0,22.1666251 3.24074924,26.9351562 8.24076235,29.8981269 C7.68520534,34.0648045 5.27779162,36.5185146 5.2314952,36.5648111 C5.00001311,36.7962931 4.9537167,37.1666645 5.04630953,37.4907394 C5.18519878,37.8148143 5.50927371,38 5.83334863,38 C10.6481761,38 14.5370752,34.8518436 16.620414,32.7685048 C17.6852316,32.9073941 18.842642,32.9999869 20.0000525,32.9999869 C31.0648963,32.9999869 40.0001049,25.7314493 40.0001049,16.7499443 L40.0001049,16.7499443 Z" id="chat" fill="#379199" sketch:type="MSShapeGroup"></path>
        <path d="M40.0001049,56.7499443 C40.0001049,47.7684392 31.0648963,40.4999017 20.0000525,40.4999017 C8.93520862,40.4999017 0,47.7684392 0,56.7499443 C0,62.1666251 3.24074924,66.9351562 8.24076235,69.8981269 C7.68520534,74.0648045 5.27779162,76.5185146 5.2314952,76.5648111 C5.00001311,76.7962931 4.9537167,77.1666645 5.04630953,77.4907394 C5.18519878,77.8148143 5.50927371,78 5.83334863,78 C10.6481761,78 14.5370752,74.8518436 16.620414,72.7685048 C17.6852316,72.9073941 18.842642,72.9999869 20.0000525,72.9999869 C31.0648963,72.9999869 40.0001049,65.7314493 40.0001049,56.7499443 L40.0001049,56.7499443 Z" id="chat" fill="#6CC2CA" sketch:type="MSShapeGroup"></path>
    </g>
</svg>
